<?xml version="1.0" encoding="UTF-8"?>
<svg version="1.1" xmlns="http://www.w3.org/2000/svg" width="222" height="264">
<path d="M0 0 C73.26 0 146.52 0 222 0 C222 87.12 222 174.24 222 264 C148.74 264 75.48 264 0 264 C0 176.88 0 89.76 0 0 Z " fill="#FEFEFE" transform="translate(0,0)"/>
<path d="M0 0 C14.7695815 -0.07033542 29.53914059 -0.1231076 44.30885601 -0.15543652 C51.16795668 -0.17085184 58.0269528 -0.19183812 64.88598633 -0.22631836 C71.51254337 -0.25961383 78.13902082 -0.27688296 84.76566505 -0.28463173 C87.2864534 -0.2901498 89.80723622 -0.30092489 92.32797813 -0.31719017 C113.40090342 -0.44768507 130.57719656 0.24268515 146.765625 15.42578125 C154.27744322 24.08013127 156.19761805 33.16649198 156.3125 44.1875 C156.34150391 45.09564453 156.37050781 46.00378906 156.40039062 46.93945312 C156.46163233 53.52058049 155.1507207 58.24163467 152 64 C151.53078125 64.87011719 151.0615625 65.74023438 150.578125 66.63671875 C145.28299577 74.81302124 138.26560901 79.95579672 129 83 C126.06799498 83.60715176 123.15414086 84.10401972 120.1875 84.5078125 C119.465625 84.67023438 118.74375 84.83265625 118 85 C117.67 85.66 117.34 86.32 117 87 C117.8353125 87.07347656 117.8353125 87.07347656 118.6875 87.1484375 C130.97095175 88.35188379 144.89809168 92.21705256 153.47265625 101.7734375 C161.91752897 114.08437727 165.33509926 127.32865252 162.6015625 142.16210938 C159.52261579 154.53710673 153.43225449 164.56407725 143 172 C125.55104975 182.2422789 107.12241199 181.39484889 87.5625 181.1875 C85.07748208 181.17242357 82.5924553 181.15874041 80.10742188 181.14648438 C74.07141844 181.11371925 68.03575155 181.06375539 62 181 C61.8506914 172.42542038 63.92494739 167.72944062 69.60546875 161.13671875 C77.38530272 153.68951426 87.62642493 153.63234907 97.8125 153.5625 C113.92393328 153.53454419 113.92393328 153.53454419 127.625 146 C132.12255554 139.71425972 133.82583785 130.57018025 133 123 C131.69361398 116.11362408 130.25426996 110.78722374 125 106 C118.32773837 101.72644399 111.95914803 100.88797274 104.09594727 100.82299805 C103.10200455 100.81314125 103.10200455 100.81314125 102.08798218 100.80308533 C99.91412209 100.78351362 97.74033036 100.77172926 95.56640625 100.76171875 C94.44589528 100.75560546 94.44589528 100.75560546 93.30274773 100.74936867 C89.35246947 100.72858174 85.40222525 100.71424552 81.4519043 100.70483398 C77.38552205 100.6937542 73.31968463 100.65931566 69.25349522 100.61966228 C66.11267615 100.59346197 62.97198676 100.58513942 59.83106804 100.58155251 C58.33242021 100.57669937 56.83377767 100.56512176 55.3352375 100.54651451 C44.45846075 100.25126267 44.45846075 100.25126267 35 105 C30.72873057 109.72087674 29.8749627 112.25293103 29.79467773 118.56103516 C29.77982834 119.57096779 29.77982834 119.57096779 29.76467896 120.6013031 C29.73304885 122.83052026 29.70830066 125.05975874 29.68359375 127.2890625 C29.66302552 128.83320678 29.64202908 130.37734541 29.62062073 131.92147827 C29.56538651 135.98864167 29.51598322 140.05585599 29.46777344 144.12310791 C29.41756825 148.27222229 29.36187707 152.42126259 29.30664062 156.5703125 C29.19904252 164.71348077 29.0981081 172.85671186 29 181 C19.43 181 9.86 181 0 181 C-0.08021762 164.47962709 -0.08021762 164.47962709 -0.09765625 157.42773438 C-0.10960335 152.61933976 -0.12372422 147.81102146 -0.15087891 143.00268555 C-0.17263859 139.12530876 -0.18457522 135.24801382 -0.18975449 131.37058067 C-0.19344463 129.89263305 -0.20065059 128.41468981 -0.21146011 126.93677711 C-0.22601675 124.86375943 -0.22797623 122.7910783 -0.22705078 120.71801758 C-0.231492 119.53887283 -0.23593323 118.35972809 -0.24050903 117.14485168 C0.00033078 113.99567475 0.74317669 111.8669083 2 109 C2.061875 107.96875 2.12375 106.9375 2.1875 105.875 C4.19442847 96.30349499 11.16928201 88.53467414 19 83 C27.27011225 78.11892859 34.03612896 75.89692479 43.65698242 75.84228516 C44.96241501 75.83202301 46.2678476 75.82176086 47.61283875 75.81118774 C48.30367743 75.80774982 48.99451611 75.8043119 49.70628929 75.80076981 C51.89000015 75.7888744 54.07352252 75.76939398 56.25715637 75.74765015 C62.46279498 75.68640194 68.66841211 75.63216134 74.87426758 75.59863281 C78.68095757 75.57752202 82.48729843 75.54209153 86.293787 75.49787521 C87.7332272 75.48384556 89.17272911 75.47502271 90.61223412 75.47182083 C102.14198919 75.44346744 113.79394307 75.05273657 122.46875 66.5625 C127.79968001 59.92845377 126.79466053 51.01903529 126 43 C125.22166769 37.88845222 123.19726848 34.85274862 119.1875 31.625 C113.25128898 27.3831566 107.46781161 26.70752267 100.39941406 26.74462891 C99.55628662 26.74100845 98.71315918 26.737388 97.84448242 26.73365784 C96.02100961 26.7267867 94.19751633 26.7242541 92.37403107 26.72560501 C89.48063895 26.72657422 86.58761431 26.71358031 83.6942749 26.69662476 C75.4703659 26.650479 67.24649504 26.62576249 59.02246094 26.61914062 C53.98385514 26.61410642 48.94563331 26.58975945 43.9071579 26.55381393 C41.99517886 26.54405979 40.08314671 26.54165987 38.17115021 26.54698563 C16.11315512 26.60553616 16.11315512 26.60553616 7.125 18.875 C2.21617071 13.49037401 -0.12086122 7.22014448 0 0 Z " fill="#507FA5" transform="translate(37,40)"/>
</svg>
